<svg xmlns="http://www.w3.org/2000/svg" width="85.975" height="79.925" viewBox="0 0 85.975 79.925">
  <g id="Group_4281" data-name="Group 4281" transform="translate(-362.463 -1935)">
    <path id="Path_504" data-name="Path 504" d="M-180.471-393.538a.691.691,0,0,0-.825.527c-.151.686-.284,1.388-.395,2.086a.692.692,0,0,0,.575.792.687.687,0,0,0,.109.009.692.692,0,0,0,.683-.584c.107-.671.234-1.346.38-2.005A.692.692,0,0,0-180.471-393.538Z" transform="translate(563.633 2340.73)" fill="#be1f25" stroke="#be1f25" stroke-width="1"/>
    <path id="Path_505" data-name="Path 505" d="M-30.8-308.321a.692.692,0,0,0,.692-.692v-14.454a.692.692,0,0,0-.692-.692.692.692,0,0,0-.692.692v14.454A.692.692,0,0,0-30.8-308.321Z" transform="translate(436.243 2280.795)" fill="#be1f25" stroke="#be1f25" stroke-width="1"/>
    <path id="Path_506" data-name="Path 506" d="M-30.8-401.8a.692.692,0,0,0,.692-.692v-12.55a.692.692,0,0,0-.692-.692.692.692,0,0,0-.692.692v12.55A.692.692,0,0,0-30.8-401.8Z" transform="translate(436.243 2359.178)" fill="#be1f25" stroke="#be1f25" stroke-width="1"/>
    <path id="Path_507" data-name="Path 507" d="M-30.8-448.265a.692.692,0,0,0,.692-.692v-2.291a.692.692,0,0,0-.692-.692.692.692,0,0,0-.692.692v2.291A.692.692,0,0,0-30.8-448.265Z" transform="translate(436.243 2391.985)" fill="#be1f25" stroke="#be1f25" stroke-width="1"/>
    <path id="Path_508" data-name="Path 508" d="M-222.162-473.427l-4.868-4.251c-3.063-2.675-6-10.01-6.826-12.194a6.6,6.6,0,0,0-6.132-4.255,6.285,6.285,0,0,0-3.29.931c-.107.066-.213.135-.317.207a6.508,6.508,0,0,0-2.493,3.345l-.241-.015a18.241,18.241,0,0,0-11.935-4.424,18.143,18.143,0,0,0-5.965,1.007,18.052,18.052,0,0,0-5.937-1.007,17.88,17.88,0,0,0-11.8,4.428l-.182.012a6.508,6.508,0,0,0-2.494-3.345c-.1-.072-.21-.141-.317-.207a6.287,6.287,0,0,0-3.29-.931,6.6,6.6,0,0,0-6.132,4.255c-.827,2.184-3.763,9.518-6.826,12.194l-4.868,4.251a1.449,1.449,0,0,0-.37,1.682,1.449,1.449,0,0,0,1.322.857,1.436,1.436,0,0,0,.178-.011l.588-.073a30.667,30.667,0,0,0,10.915-3.524l-.091.721,0,.035a11.636,11.636,0,0,0,5.957,11.35q.381,1.681.91,3.328a9.206,9.206,0,0,0-2.3-.293,9.22,9.22,0,0,0-2.834.446,9.231,9.231,0,0,0-6.016,6.152l0,.006a18.39,18.39,0,0,0,3.43,16.945l9.308,11.315a5.062,5.062,0,0,1,.922,1.7,5.071,5.071,0,0,1,.233,1.7l-.1,2.93a1.458,1.458,0,0,0,.022.305,3.221,3.221,0,0,0,3.177,2.65,3.186,3.186,0,0,0,2.53-1.245.318.318,0,0,1,.253-.124.32.32,0,0,1,.09.013,3.263,3.263,0,0,0,.922.134,3.2,3.2,0,0,0,2.713-1.511,3.193,3.193,0,0,0,.176-3.1,1.451,1.451,0,0,0-.16-.26l-1.792-2.319a5.073,5.073,0,0,1-.807-1.52,5.07,5.07,0,0,1-.246-1.923l.876-13.553a9.14,9.14,0,0,1,1.452-.558l5.416,4.851a7.913,7.913,0,0,0,5.287,2.022,7.913,7.913,0,0,0,5.287-2.022l5.442-4.875.079.064a2.724,2.724,0,0,0,1.352.61l.87,13.46a5.062,5.062,0,0,1-.244,1.918,5.078,5.078,0,0,1-.808,1.525l-1.792,2.319a1.451,1.451,0,0,0-.16.26,3.194,3.194,0,0,0,.176,3.1,3.2,3.2,0,0,0,2.713,1.511,3.264,3.264,0,0,0,.922-.134.32.32,0,0,1,.09-.013.318.318,0,0,1,.253.124,3.186,3.186,0,0,0,2.53,1.245,3.221,3.221,0,0,0,3.177-2.65,1.443,1.443,0,0,0,.022-.305l-.1-2.93a5.075,5.075,0,0,1,.233-1.7,5.065,5.065,0,0,1,.922-1.7l9.308-11.315a18.39,18.39,0,0,0,3.43-16.945l0-.007a9.231,9.231,0,0,0-6.016-6.152,9.218,9.218,0,0,0-2.834-.446,9.207,9.207,0,0,0-2.3.293q.527-1.644.91-3.328a11.637,11.637,0,0,0,5.957-11.35c0-.012,0-.023,0-.035l-.091-.72a30.678,30.678,0,0,0,10.915,3.522l.588.073a1.433,1.433,0,0,0,.178.011,1.448,1.448,0,0,0,1.322-.857A1.448,1.448,0,0,0-222.162-473.427Zm-53.763,53.308a1.184,1.184,0,0,1-.193,1.264,1.187,1.187,0,0,1-1.269.378,2.306,2.306,0,0,0-2.489.8,1.185,1.185,0,0,1-1.251.435,1.185,1.185,0,0,1-.9-.913l.1-2.866a7.074,7.074,0,0,0-.181-1.844l3.5-1.133a7.054,7.054,0,0,0,.933,1.608Zm-1.142-22.324a17.506,17.506,0,0,0-.087-2.21q.783.831,1.611,1.616A11.08,11.08,0,0,0-277.066-442.443Zm25.9,0a11.077,11.077,0,0,0-1.524-.594q.828-.782,1.61-1.615A17.527,17.527,0,0,0-251.167-442.444Zm4.859,21.425.1,2.866a1.184,1.184,0,0,1-.9.913,1.185,1.185,0,0,1-1.251-.435,2.306,2.306,0,0,0-1.826-.9,2.349,2.349,0,0,0-.663.1,1.186,1.186,0,0,1-1.269-.378,1.184,1.184,0,0,1-.193-1.264l1.753-2.269a7.057,7.057,0,0,0,.933-1.608l3.5,1.133A7.083,7.083,0,0,0-246.308-421.019Zm9.26-35.986a7.233,7.233,0,0,1,4.714,4.824,16.392,16.392,0,0,1-3.057,15.1l-9.308,11.315a7.048,7.048,0,0,0-1.1,1.845l-3.485-1.129a7.052,7.052,0,0,0,.189-2.138l-.944-14.616a16.391,16.391,0,0,1,6.342-14.045A7.233,7.233,0,0,1-237.048-457Zm-4.615-11.854-.314,2.464c-.123.961-.284,1.928-.48,2.873h0a37.611,37.611,0,0,1-2.2,7.03,17.491,17.491,0,0,0-6.1,9.832,37.63,37.63,0,0,1-3.412,3.484l-6,5.371a5.916,5.916,0,0,1-7.9,0l-5.983-5.359-.013-.011a37.7,37.7,0,0,1-3.417-3.491,17.511,17.511,0,0,0-1.408-3.986.553.553,0,0,0-.741-.249.553.553,0,0,0-.249.741,16.416,16.416,0,0,1,1.321,3.742.547.547,0,0,0,.046.21,16.411,16.411,0,0,1,.314,4.409l-.944,14.616a7.049,7.049,0,0,0,.189,2.138l-3.485,1.129a7.049,7.049,0,0,0-1.1-1.845l-9.308-11.315A16.41,16.41,0,0,1-296.573-448a.552.552,0,0,0-.525-.568,16.951,16.951,0,0,1,.668-3.769h0a7.778,7.778,0,0,1,1.526-2.815.552.552,0,0,0,.765-.023A7.264,7.264,0,0,1-291.185-457a7.233,7.233,0,0,1,6.644,1.161,16.471,16.471,0,0,1,1.865,1.684.551.551,0,0,0,.4.172.55.55,0,0,0,.381-.152.552.552,0,0,0,.02-.781,17.552,17.552,0,0,0-1.7-1.568,37.632,37.632,0,0,1-2.161-6.865.552.552,0,0,0-.045-.222c-.191-.93-.35-1.877-.47-2.819l-.314-2.465a27.22,27.22,0,0,1-.192-4.611.553.553,0,0,0-.528-.576.555.555,0,0,0-.576.528,28.327,28.327,0,0,0,.2,4.8l.314,2.465c.078.615.174,1.231.282,1.844a9.626,9.626,0,0,1-4.473-9.114l.436-3.465q.844-.591,1.65-1.242a.553.553,0,0,0,.082-.777.553.553,0,0,0-.777-.082q-.985.8-2.033,1.5c-.1.067-.2.135-.3.2-.128.084-.258.165-.387.247s-.234.149-.352.221l-.173.1a28.728,28.728,0,0,1-6.923,3l-.015,0c-.227.064-.455.125-.683.184l-.144.036q-.306.077-.613.147l-.244.053c-.181.04-.362.079-.544.115-.16.032-.32.06-.481.089-.1.019-.208.04-.312.057l3.472-3.033c3.113-2.719,5.9-9.175,7.151-12.394.084-.215.16-.415.23-.6a4.583,4.583,0,0,1,2.815-2.721,4.341,4.341,0,0,1,3.688.393c.076.047.151.1.226.147.093.064.182.133.268.2l.055.045c.087.072.171.147.251.225h0q.127.124.244.257l.014.016a4.57,4.57,0,0,1,1.1,3.343h0c-.009.118-.023.236-.042.353,0,.01,0,.021-.005.031-.017.1-.039.208-.064.312,0,.014-.006.029-.01.043-.029.116-.062.231-.1.346a.549.549,0,0,0-.027.221,17.053,17.053,0,0,0-2.045,3.841.553.553,0,0,0,.322.712.554.554,0,0,0,.712-.322,15.915,15.915,0,0,1,8.429-8.928,16.172,16.172,0,0,1,12.47-.378.555.555,0,0,0,.393,0,15.907,15.907,0,0,1,12.409.4,15.914,15.914,0,0,1,8.368,9.178A27.3,27.3,0,0,1-241.663-468.858Zm5.368-8.9a28.6,28.6,0,0,1-2.6-2.018.553.553,0,0,0-.78.053.553.553,0,0,0,.053.78,29.756,29.756,0,0,0,2.5,1.95l.435,3.455a9.653,9.653,0,0,1-4.471,9.126c.108-.612.2-1.229.282-1.843l.314-2.464a28.406,28.406,0,0,0-1.424-13.094,17.313,17.313,0,0,0-2.694-4.881.553.553,0,0,0,.293-.536,4.547,4.547,0,0,1,1.937-4.115c.074-.051.149-.1.225-.147a4.341,4.341,0,0,1,3.688-.393,4.583,4.583,0,0,1,2.815,2.721c1.113,2.94,4.06,10.092,7.381,12.992l3.473,3.033A28.679,28.679,0,0,1-236.295-477.757Z" transform="translate(669.567 2429.627)" fill="#be1f25" stroke="#be1f25" stroke-width="1"/>
  </g>
</svg>
