<svg xmlns="http://www.w3.org/2000/svg" width="84.901" height="84.901" viewBox="0 0 84.901 84.901">
  <g id="vegetables" transform="translate(0)">
    <g id="Group_728" data-name="Group 728" transform="translate(9.642 73.993)">
      <g id="Group_727" data-name="Group 727">
        <path id="Path_509" data-name="Path 509" d="M56.844,451.346l-.016-.012a1.787,1.787,0,0,0-2.174,2.838l.016.013a1.787,1.787,0,0,0,2.174-2.838Z" transform="translate(-53.953 -450.965)" fill="#be1f25"/>
      </g>
    </g>
    <g id="Group_730" data-name="Group 730" transform="translate(9.642 60.989)">
      <g id="Group_729" data-name="Group 729">
        <path id="Path_510" data-name="Path 510" d="M56.844,369.346l-.016-.013a1.787,1.787,0,0,0-2.174,2.838l.016.012a1.787,1.787,0,0,0,2.174-2.838Z" transform="translate(-53.953 -368.965)" fill="#be1f25"/>
      </g>
    </g>
    <g id="Group_732" data-name="Group 732" transform="translate(9.642 47.434)">
      <g id="Group_731" data-name="Group 731">
        <path id="Path_511" data-name="Path 511" d="M56.844,287.346l-.016-.013a1.787,1.787,0,0,0-2.174,2.838l.016.013a1.787,1.787,0,0,0,2.174-2.838Z" transform="translate(-53.953 -286.965)" fill="#be1f25"/>
      </g>
    </g>
    <g id="Group_734" data-name="Group 734" transform="translate(71.659 73.993)">
      <g id="Group_733" data-name="Group 733">
        <path id="Path_512" data-name="Path 512" d="M440.79,451.34l-.017-.012a1.787,1.787,0,0,0-2.159,2.849l.017.012a1.787,1.787,0,1,0,2.159-2.849Z" transform="translate(-437.906 -450.964)" fill="#be1f25"/>
      </g>
    </g>
    <g id="Group_736" data-name="Group 736" transform="translate(71.659 60.989)">
      <g id="Group_735" data-name="Group 735">
        <path id="Path_513" data-name="Path 513" d="M440.79,369.341l-.017-.013a1.787,1.787,0,1,0-2.159,2.849l.017.013a1.787,1.787,0,1,0,2.159-2.849Z" transform="translate(-437.907 -368.965)" fill="#be1f25"/>
      </g>
    </g>
    <g id="Group_738" data-name="Group 738" transform="translate(71.659 47.434)">
      <g id="Group_737" data-name="Group 737">
        <path id="Path_514" data-name="Path 514" d="M440.79,287.341l-.017-.013a1.787,1.787,0,1,0-2.159,2.849l.017.013a1.787,1.787,0,1,0,2.159-2.849Z" transform="translate(-437.906 -286.965)" fill="#be1f25"/>
      </g>
    </g>
    <g id="Group_740" data-name="Group 740" transform="translate(59.397 54.218)">
      <g id="Group_739" data-name="Group 739">
        <path id="Path_515" data-name="Path 515" d="M361.152,328h-.023a1.787,1.787,0,0,0,0,3.574h.023a1.787,1.787,0,1,0,0-3.574Z" transform="translate(-359.342 -328)" fill="#be1f25"/>
      </g>
    </g>
    <g id="Group_742" data-name="Group 742" transform="translate(21.906 67.513)">
      <g id="Group_741" data-name="Group 741">
        <path id="Path_516" data-name="Path 516" d="M134.338,410h-.023a1.787,1.787,0,1,0,0,3.574h.023a1.787,1.787,0,1,0,0-3.574Z" transform="translate(-132.528 -410)" fill="#be1f25"/>
      </g>
    </g>
    <g id="Group_744" data-name="Group 744" transform="translate(11.388 30.127)">
      <g id="Group_743" data-name="Group 743">
        <path id="Path_517" data-name="Path 517" d="M66.771,182.784a1.786,1.786,0,1,0,.524,1.265A1.8,1.8,0,0,0,66.771,182.784Z" transform="translate(-63.72 -182.26)" fill="#be1f25"/>
      </g>
    </g>
    <g id="Group_746" data-name="Group 746" transform="translate(0)">
      <g id="Group_745" data-name="Group 745">
        <path id="Path_518" data-name="Path 518" d="M83.243,40.792H76.356a9.867,9.867,0,0,0-.471-17.379,9.873,9.873,0,0,0-13.84-12.645,11.464,11.464,0,0,0-6.609-2.094c-.161,0-.321.006-.481.012a12.83,12.83,0,0,0-23.705-1.4c-.4-.037-.8-.055-1.194-.055a12.837,12.837,0,0,0-11.823,7.844q-.526-.161-1.07-.282a7.349,7.349,0,0,1,2.009-4.837A4.444,4.444,0,0,1,21.217,8.8l-.023,0v0a1.657,1.657,0,0,0-.238-3.3,1.642,1.642,0,0,0-.277.025v0a7.259,7.259,0,0,0-3.573,1.828v-5.7A1.658,1.658,0,0,0,15.447,0h-3.98A1.658,1.658,0,0,0,9.809,1.658v6.2A19.954,19.954,0,0,0,5.683,4.05,1.658,1.658,0,0,0,3.868,6.825c.055.036,5.072,3.4,5.817,8.228A13.191,13.191,0,0,0,0,27.479c0,2.413,1.376,8.207,2.727,13.313H1.658A1.658,1.658,0,0,0,0,42.451V83.243A1.658,1.658,0,0,0,1.658,84.9H83.243A1.658,1.658,0,0,0,84.9,83.243V42.451A1.658,1.658,0,0,0,83.243,40.792ZM30.056,10.546a9.587,9.587,0,0,1,1.9.19,1.658,1.658,0,0,0,1.892-1.072,9.514,9.514,0,0,1,17.807-.346,11.5,11.5,0,0,0-7.7,10.841,1.658,1.658,0,1,0,3.316,0,8.165,8.165,0,0,1,13.582-6.111,1.659,1.659,0,0,0,2.1.086,6.494,6.494,0,0,1,3.929-1.309,6.552,6.552,0,0,1,5.259,10.459,1.658,1.658,0,0,0,.925,2.6,6.552,6.552,0,0,1-1.608,12.9,6.616,6.616,0,0,1-1.242-.119,1.658,1.658,0,0,0-1.874,1.072,6.521,6.521,0,0,1-.487,1.054H65.755l6.79-9.734a1.658,1.658,0,0,0-.441-2.329l-4.835-3.217a1.658,1.658,0,0,0-2.338.523l-2.418,4,1.979-10.011A1.658,1.658,0,0,0,63.2,18.082l-4.219-.868a1.658,1.658,0,0,0-1.964,1.321l-.541,2.908H52.6A1.658,1.658,0,0,0,50.947,23.1v9.542a12.29,12.29,0,0,0-12.042-9.915,12.166,12.166,0,0,0-7.377,2.464,12.393,12.393,0,0,0-3.985,5.173,18.438,18.438,0,0,0,.315-2.886,12.325,12.325,0,0,0-1.685-6.215A6.074,6.074,0,0,1,33.084,17.4a1.658,1.658,0,0,0,1.893-1.073,6.116,6.116,0,0,1,1.791-2.607,1.658,1.658,0,0,0-2.156-2.52A9.45,9.45,0,0,0,32.4,13.981q-.261-.015-.523-.015a9.393,9.393,0,0,0-7.964,4.423,13.9,13.9,0,0,0-2.635-1.99A9.517,9.517,0,0,1,30.056,10.546ZM60.628,39.574l6.246-10.342,1.981,1.318L61.711,40.792H60.388Zm-2.074-6.609v-4.6c.009-.035.018-.069.025-.105L59.967,20.8l.953.2Zm-4.3,4.951a1.694,1.694,0,0,0,.012-.191V24.759h.975V40.792h-.523q.007-.156.007-.312A7.2,7.2,0,0,0,54.251,37.916ZM31.506,30.18c-.049,0-.1,0-.146,0a8.95,8.95,0,0,1,16.348,3.187,6.916,6.916,0,0,0-5.586,2.937A12.275,12.275,0,0,0,31.506,30.18Zm8.8,10.613h-17.6a8.953,8.953,0,0,1,17.6,0Zm7.453-4.106a3.728,3.728,0,0,1,3.648,3.794c0,.1,0,.209-.013.312h-7.27c-.008-.1-.013-.207-.013-.312A3.728,3.728,0,0,1,47.757,36.686ZM13.126,3.316h.663v11.12c-.222,0-.444.008-.663.02ZM3.415,26.168a1.664,1.664,0,0,0,.32.032h8.2a1.658,1.658,0,1,0,0-3.316H4.578a10.788,10.788,0,0,1,9.351-5.134c5.852,0,10.613,4.365,10.613,9.73a16.779,16.779,0,0,1-.333,2.7H17.623a1.658,1.658,0,0,0,0,3.316h5.506a12.251,12.251,0,0,0-3.778,7.3H6.159C4.347,34.029,3.316,29.21,3.316,27.479A8.964,8.964,0,0,1,3.415,26.168ZM81.585,54.39H66.992a1.658,1.658,0,0,0,0,3.316H81.585V67.987h-52.3a1.658,1.658,0,0,0,0,3.316h52.3V81.585H3.316V71.3H17.909a1.658,1.658,0,1,0,0-3.316H3.316V57.706h52.3a1.658,1.658,0,0,0,0-3.316H3.316V44.109H81.585Z" fill="#be1f25"/>
      </g>
    </g>
    <g id="Group_748" data-name="Group 748" transform="translate(38.899 9.651)">
      <g id="Group_747" data-name="Group 747">
        <path id="Path_519" data-name="Path 519" d="M237.144,54h-.024a1.787,1.787,0,0,0,0,3.574h.024a1.787,1.787,0,1,0,0-3.574Z" transform="translate(-235.333 -54)" fill="#be1f25"/>
      </g>
    </g>
  </g>
</svg>
