<svg xmlns="http://www.w3.org/2000/svg" width="232.267" height="10.898" viewBox="0 0 232.267 10.898">
  <path id="Path_525" data-name="Path 525" d="M196.363,400.842c-4.157,0-6.313,2.125-8.046,3.832-1.488,1.466-2.563,2.526-4.859,2.526s-3.37-1.059-4.858-2.525c-1.733-1.707-3.889-3.832-8.046-3.832s-6.313,2.125-8.045,3.832c-1.488,1.466-2.563,2.525-4.858,2.525s-3.37-1.059-4.858-2.525c-1.733-1.707-3.889-3.832-8.045-3.832s-6.313,2.125-8.045,3.832c-1.488,1.466-2.563,2.525-4.858,2.525s-3.37-1.059-4.858-2.525c-1.733-1.707-3.889-3.832-8.046-3.832s-6.313,2.125-8.045,3.832c-1.488,1.466-2.563,2.525-4.858,2.525s-3.37-1.059-4.858-2.525c-1.732-1.707-3.889-3.832-8.045-3.832s-6.313,2.125-8.045,3.832c-1.488,1.466-2.563,2.525-4.858,2.525s-3.37-1.059-4.858-2.525c-1.732-1.707-3.889-3.832-8.045-3.832s-6.313,2.125-8.045,3.832c-1.488,1.466-2.563,2.525-4.858,2.525s-3.37-1.059-4.858-2.525c-1.732-1.707-3.889-3.832-8.045-3.832s-6.313,2.125-8.045,3.832c-1.488,1.466-2.563,2.525-4.858,2.525s-3.37-1.059-4.858-2.525c-1.733-1.707-3.889-3.832-8.045-3.832s-6.313,2.125-8.045,3.832C6.177,406.14,5.1,407.2,2.807,407.2s-3.37-1.059-4.858-2.525c-1.733-1.707-3.889-3.832-8.045-3.832s-6.313,2.125-8.045,3.832C-19.63,406.14-20.7,407.2-23,407.2v4.541c4.157,0,6.313-2.125,8.045-3.832,1.488-1.466,2.563-2.525,4.858-2.525s3.37,1.059,4.858,2.525c1.732,1.707,3.889,3.832,8.045,3.832s6.313-2.125,8.045-3.832c1.488-1.466,2.563-2.525,4.858-2.525s3.37,1.059,4.858,2.525c1.732,1.707,3.889,3.832,8.045,3.832s6.313-2.125,8.045-3.832c1.488-1.466,2.563-2.525,4.858-2.525s3.37,1.059,4.858,2.525c1.733,1.707,3.889,3.832,8.045,3.832s6.313-2.125,8.045-3.832c1.488-1.466,2.563-2.525,4.858-2.525s3.37,1.059,4.858,2.525c1.733,1.707,3.889,3.832,8.045,3.832s6.313-2.125,8.045-3.832c1.488-1.466,2.563-2.525,4.858-2.525s3.37,1.059,4.858,2.525c1.733,1.707,3.889,3.832,8.045,3.832s6.313-2.125,8.045-3.832c1.488-1.466,2.563-2.525,4.858-2.525s3.37,1.059,4.858,2.525c1.733,1.707,3.889,3.832,8.045,3.832s6.313-2.125,8.045-3.832c1.488-1.466,2.563-2.525,4.858-2.525s3.37,1.059,4.858,2.525c1.733,1.707,3.889,3.832,8.045,3.832s6.313-2.125,8.045-3.832c1.488-1.466,2.563-2.525,4.858-2.525s3.371,1.059,4.859,2.525c1.733,1.707,3.889,3.832,8.045,3.832s6.313-2.125,8.046-3.832c1.488-1.466,2.563-2.526,4.859-2.526s3.371,1.059,4.859,2.525c1.733,1.707,3.889,3.832,8.046,3.832V407.2c-2.3,0-3.371-1.059-4.859-2.526C202.676,402.967,200.52,400.842,196.363,400.842Z" transform="translate(23 -400.842)" fill="#be1f25"/>
</svg>
