<svg xmlns="http://www.w3.org/2000/svg" width="106.684" height="20.119" viewBox="0 0 106.684 20.119"><path d="M254.529-122.386l4.063-1.767c1.135-.494,3.029-1.774,4.252-1.822,1.123-.044,2.16,1.234,2.98,1.847a18.611,18.611,0,0,0,3.424,2.077,13.032,13.032,0,0,0,7.648,1.2c2.706-.47,4.464-1.975,6.655-3.466,1.134-.772,1.472-1.179,2.5-.648.906.468,1.859,2.22,2.713,2.929a11.486,11.486,0,0,0,7.015,2.812,9.433,9.433,0,0,0,6.641-2.442c1.284-1.226,2.1-3.993,3.886-3.893,1.1.062,2.36,1.166,3.329,1.638a20.514,20.514,0,0,0,3.687,1.459,11.067,11.067,0,0,0,7.564-.43,11.366,11.366,0,0,0,3-2.159c.772-.747,1.5-2.1,2.514-2.544,2.454-1.08,5.788,1.692,7.87,2.687,4.2,2.008,11.419,5.344,16.013,2.978,4.5-2.318,5.3-9.34,5.16-13.791-.152-4.816-7.656-4.837-7.5,0a17.238,17.238,0,0,1-.268,4.1c-.1.463-.473,2.692-.849,2.931-1.093.692-6.668-1.763-7.742-2.22-4.787-2.035-9.2-5.634-14.718-3.923-2.182.677-3.644,2.218-5.162,3.811-2.147,2.254-4.089,1.454-6.656.171-4.321-2.157-9.077-3.879-12.836.352-1.174,1.321-1.856,3.873-3.936,3.777-2.282-.106-3.436-2.62-4.817-4.012-3.99-4.021-8.906-1.641-12.7,1.089-5.237,3.766-7.873-1.839-12.565-3.448-4.869-1.67-10.609,2.34-14.956,4.23-4.416,1.921-.6,8.386,3.787,6.478Z" transform="translate(-248.78 139.338)" fill="#be1f25"/></svg>