<svg id="information" xmlns="http://www.w3.org/2000/svg" width="16.139" height="18.78" viewBox="0 0 16.139 18.78">
  <g id="Group_755" data-name="Group 755" transform="translate(0 0)">
    <g id="Group_754" data-name="Group 754" transform="translate(0)">
      <path id="Path_530" data-name="Path 530" d="M235.039,182.774c-.466,0-.8.2-.8.487v3.949c0,.249.332.5.8.5.446,0,.809-.249.809-.5v-3.949C235.848,182.971,235.485,182.774,235.039,182.774Z" transform="translate(-226.97 -176.07)" fill="#be1f25"/>
      <path id="Path_531" data-name="Path 531" d="M233.678,116.361a.747.747,0,1,0,.84.736A.8.8,0,0,0,233.678,116.361Z" transform="translate(-225.608 -112.093)" fill="#be1f25"/>
      <path id="Path_532" data-name="Path 532" d="M44.069,0a8.065,8.065,0,0,0-2.442,15.753l1.835,2.705a.734.734,0,0,0,1.214,0l1.835-2.705A8.065,8.065,0,0,0,44.069,0Zm1.784,14.419a.734.734,0,0,0-.41.295L44.069,16.74l-1.375-2.026a.734.734,0,0,0-.41-.295,6.6,6.6,0,1,1,3.569,0Z" transform="translate(-36 0)" fill="#be1f25"/>
    </g>
  </g>
</svg>
