<svg xmlns="http://www.w3.org/2000/svg" xmlns:xlink="http://www.w3.org/1999/xlink" width="31" height="32" viewBox="0 0 31 32"><defs><clipPath id="a"><rect width="16" height="18" transform="translate(27 55)" fill="none"/></clipPath></defs><g transform="translate(-1675 -60)"><ellipse cx="15.5" cy="16" rx="15.5" ry="16" transform="translate(1675 60)" fill="#475993"/><g transform="translate(1 -30)"><rect width="13" height="18" transform="translate(1682 97)" fill="#fff"/><g transform="translate(1654 42)" clip-path="url(#a)"><path d="M18.551,0H2.891A2.9,2.9,0,0,0,0,2.919V18.743a2.9,2.9,0,0,0,2.889,2.919h7.724l.013-7.741H8.637a.472.472,0,0,1-.47-.473l-.01-2.5a.472.472,0,0,1,.47-.476h1.987V8.066c0-2.8,1.691-4.321,4.161-4.321H16.8a.472.472,0,0,1,.47.475v2.1A.472.472,0,0,1,16.8,6.8H15.559c-1.343,0-1.6.645-1.6,1.592v2.087h2.952a.473.473,0,0,1,.466.53l-.293,2.5a.471.471,0,0,1-.466.419H13.969l-.013,7.741h4.6a2.9,2.9,0,0,0,2.889-2.919V2.919A2.9,2.9,0,0,0,18.551,0Z" transform="translate(22.258 51.342)" fill="#475993"/></g></g></g></svg>