<svg xmlns="http://www.w3.org/2000/svg" width="31" height="32" viewBox="0 0 31 32"><ellipse cx="15.5" cy="16" rx="15.5" ry="16" transform="translate(0)" fill="#be1f25"/><g transform="translate(7.709 8.253)"><path d="M10.681,0H4.855A4.856,4.856,0,0,0,0,4.855v5.826a4.856,4.856,0,0,0,4.855,4.855h5.826a4.856,4.856,0,0,0,4.855-4.855V4.855A4.856,4.856,0,0,0,10.681,0Zm3.4,10.681a3.4,3.4,0,0,1-3.4,3.4H4.855a3.4,3.4,0,0,1-3.4-3.4V4.855a3.4,3.4,0,0,1,3.4-3.4h5.826a3.4,3.4,0,0,1,3.4,3.4Z" fill="#fff"/><path d="M131.884,128a3.884,3.884,0,1,0,3.884,3.884A3.884,3.884,0,0,0,131.884,128Zm0,6.312a2.427,2.427,0,1,1,2.428-2.428A2.431,2.431,0,0,1,131.884,134.311Z" transform="translate(-124.116 -124.116)" fill="#fff"/><ellipse cx="0.518" cy="0.518" rx="0.518" ry="0.518" transform="translate(11.426 3.075)" fill="#fff"/></g></svg>