<svg xmlns="http://www.w3.org/2000/svg" width="23.567" height="25" viewBox="0 0 23.567 25"><g transform="translate(-13.8)"><path d="M32.893,16.061a4.474,4.474,0,0,0-3.54,1.744l-6.868-3.836a4.484,4.484,0,0,0,.249-1.474,4.386,4.386,0,0,0-.254-1.479l6.863-3.831a4.465,4.465,0,1,0-.924-2.715,4.364,4.364,0,0,0,.254,1.479L21.815,9.78a4.465,4.465,0,1,0,.01,5.425l6.863,3.836a4.467,4.467,0,1,0,4.2-2.98Zm0-14.654a3.068,3.068,0,1,1-3.068,3.068A3.071,3.071,0,0,1,32.893,1.407ZM18.275,15.563a3.068,3.068,0,1,1,3.068-3.068A3.071,3.071,0,0,1,18.275,15.563Zm14.618,8.031a3.068,3.068,0,1,1,3.068-3.068A3.071,3.071,0,0,1,32.893,23.593Z" fill="#fff"/></g></svg>