<svg xmlns="http://www.w3.org/2000/svg" width="32" height="32" viewBox="0 0 32 32"><ellipse cx="16" cy="16" rx="16" ry="16" transform="translate(0)" fill="#26a6d1"/><g transform="translate(3.515 4.211)"><path d="M11.866,0A11.866,11.866,0,1,1,0,11.866,11.866,11.866,0,0,1,11.866,0Z" transform="translate(0 0)" fill="#26a6d1"/><path d="M77.8,83.3a5.909,5.909,0,0,1-1.661.443,2.829,2.829,0,0,0,1.272-1.554,5.862,5.862,0,0,1-1.837.682,2.929,2.929,0,0,0-2.111-.886,2.849,2.849,0,0,0-2.891,2.806,2.725,2.725,0,0,0,.075.64A8.294,8.294,0,0,1,64.69,82.5a2.726,2.726,0,0,0-.392,1.411,2.783,2.783,0,0,0,1.286,2.335,2.94,2.94,0,0,1-1.31-.352v.036a2.831,2.831,0,0,0,2.32,2.752,2.99,2.99,0,0,1-.762.1,2.917,2.917,0,0,1-.544-.05,2.884,2.884,0,0,0,2.7,1.949,5.911,5.911,0,0,1-3.592,1.2,6.079,6.079,0,0,1-.69-.039A8.368,8.368,0,0,0,68.141,93.1a8.046,8.046,0,0,0,8.227-7.986l-.008-.363A5.77,5.77,0,0,0,77.8,83.3Z" transform="translate(-58.518 -75.309)" fill="#fff"/></g></svg>