<svg xmlns="http://www.w3.org/2000/svg" width="173" height="8.117" viewBox="0 0 173 8.117">
  <path id="Path_4249" data-name="Path 4249" d="M140.388,400.842A7.889,7.889,0,0,0,134.4,403.7c-1.108,1.092-1.909,1.881-3.619,1.881s-2.51-.789-3.619-1.881a7.718,7.718,0,0,0-11.985,0c-1.108,1.092-1.909,1.881-3.619,1.881s-2.51-.789-3.619-1.881a7.718,7.718,0,0,0-11.985,0c-1.108,1.092-1.909,1.881-3.619,1.881s-2.51-.789-3.619-1.881a7.718,7.718,0,0,0-11.985,0c-1.108,1.092-1.909,1.881-3.618,1.881s-2.51-.789-3.619-1.881a7.718,7.718,0,0,0-11.985,0c-1.108,1.092-1.909,1.881-3.619,1.881s-2.51-.789-3.619-1.881a7.718,7.718,0,0,0-11.985,0c-1.108,1.092-1.909,1.881-3.619,1.881s-2.51-.789-3.619-1.881a7.718,7.718,0,0,0-11.985,0c-1.108,1.092-1.909,1.881-3.619,1.881s-2.51-.789-3.618-1.881a7.888,7.888,0,0,0-5.992-2.854A7.888,7.888,0,0,0-.16,403.7c-1.108,1.092-1.909,1.881-3.619,1.881s-2.51-.789-3.618-1.881a7.888,7.888,0,0,0-5.992-2.854,7.888,7.888,0,0,0-5.992,2.854c-1.108,1.092-1.909,1.881-3.618,1.881v3.382a7.888,7.888,0,0,0,5.992-2.854c1.108-1.092,1.909-1.881,3.619-1.881s2.51.789,3.618,1.881a7.888,7.888,0,0,0,5.992,2.854,7.888,7.888,0,0,0,5.992-2.854c1.108-1.092,1.909-1.881,3.619-1.881s2.51.789,3.619,1.881a7.888,7.888,0,0,0,5.992,2.854,7.888,7.888,0,0,0,5.992-2.854c1.108-1.092,1.909-1.881,3.619-1.881s2.51.789,3.619,1.881a7.718,7.718,0,0,0,11.985,0c1.108-1.092,1.909-1.881,3.619-1.881s2.51.789,3.619,1.881a7.718,7.718,0,0,0,11.985,0c1.108-1.092,1.909-1.881,3.619-1.881s2.51.789,3.619,1.881a7.718,7.718,0,0,0,11.985,0c1.108-1.092,1.909-1.881,3.618-1.881s2.51.789,3.619,1.881a7.718,7.718,0,0,0,11.985,0c1.108-1.092,1.909-1.881,3.619-1.881s2.51.789,3.619,1.881a7.718,7.718,0,0,0,11.985,0c1.108-1.092,1.909-1.881,3.618-1.881s2.511.789,3.619,1.881a7.718,7.718,0,0,0,11.985,0c1.108-1.092,1.909-1.881,3.619-1.881s2.511.789,3.619,1.881A7.889,7.889,0,0,0,150,408.959v-3.382c-1.71,0-2.511-.789-3.619-1.881A7.889,7.889,0,0,0,140.388,400.842Z" transform="translate(23 -400.842)" fill="#fecf00"/>
</svg>
